<?xml version="1.0" encoding="UTF-8"?>
<svg width="263px" height="408px" viewBox="0 0 263 408" version="1.1" xmlns="http://www.w3.org/2000/svg" xmlns:xlink="http://www.w3.org/1999/xlink">
    <!-- Generator: Sketch 52.6 (67491) - http://www.bohemiancoding.com/sketch -->
    <title>Artboard</title>
    <desc>Created with Sketch.</desc>
    <g id="Artboard" stroke="none" stroke-width="1" fill="none" fill-rule="evenodd">
        <path d="M235,140 L243.5,140 C254.269553,140 263,148.730447 263,159.5 C263,170.269553 254.269553,179 243.5,179 L235,179 L235,187 C235,202.463973 222.463973,215 207,215 L56,215 C40.536027,215 28,202.463973 28,187 L28,179 C24.8815204,179 21.7316979,179 19.5,179 C8.73044738,179 0,170.269553 0,159.5 C0,148.730447 8.73044738,140 19.5,140 C21.679578,140 24.9148086,140 28,140 L28,132 C28,116.536027 40.536027,104 56,104 L122,104 L122,70.9197855 C113.170476,67.061998 107,58.2515949 107,48 C107,34.1928813 118.192881,23 132,23 C145.807119,23 157,34.1928813 157,48 C157,58.2515949 150.829524,67.061998 142.000001,70.9197813 L142,104 L207,104 C222.463973,104 235,116.536027 235,132 L235,140 Z M92.5,178 C102.717268,178 111,169.717268 111,159.5 C111,149.282732 102.717268,141 92.5,141 C82.2827321,141 74,149.282732 74,159.5 C74,169.717268 82.2827321,178 92.5,178 Z M171.5,178 C181.717268,178 190,169.717268 190,159.5 C190,149.282732 181.717268,141 171.5,141 C161.282732,141 153,149.282732 153,159.5 C153,169.717268 161.282732,178 171.5,178 Z" id="Combined-Shape" fill="#FCFFF7" fill-rule="nonzero"></path>
        <g id="Group-2" transform="translate(55.000000, 201.000000)" fill-rule="nonzero">
            <path d="M44.1163462,87.349129 C43.62187,86.971803 41.4962768,85.3609777 40.9405135,84.9375924 C39.5394268,83.8702324 38.3383693,82.9417808 37.1155317,81.9756142 C33.9300014,79.4587201 30.9124953,76.9295111 27.8112816,74.1352589 C12.5741856,60.406347 0.203445848,29.6251768 0.203445848,7.60301508 L0.203445848,0 L153,0 L153,7.60301508 C153,29.6251768 140.62926,60.406347 125.392164,74.1352589 C122.290951,76.9295111 119.273444,79.4587201 116.087914,81.9756142 C114.865077,82.9417808 113.664019,83.8702324 112.262932,84.9375924 C111.707169,85.3609777 109.581576,86.971803 109.0871,87.349129 C108.448738,87.8362514 107.89976,88.2607282 107.42446,88.6355494 C107.674477,88.813044 107.942552,89.0017153 108.230084,89.2026139 C108.570259,89.4402944 110.617378,90.8601129 111.257962,91.3086451 C112.566635,92.2249683 113.687804,93.0285767 114.802233,93.8558347 C117.698221,96.0055723 120.299316,98.1369297 122.792032,100.464572 C124.191071,101.770964 125.532716,103.119529 126.820317,104.521804 C134.150562,112.504884 139.867598,120.509181 144.323526,129.970837 C149.959225,141.937603 153,155.294644 153,170.396985 L145.43664,170.396985 L145.43664,178 L23.1350028,178 L0,178 L0.206082165,170.197318 C0.858904698,145.480154 11.8637194,120.334319 26.3831285,104.521804 C27.6707298,103.119529 29.012375,101.770964 30.4114142,100.464572 C32.9041295,98.1369297 35.5052252,96.0055723 38.4012132,93.8558347 C39.5156419,93.0285767 40.636811,92.2249683 41.9454839,91.3086451 C42.5860678,90.8601129 44.6331872,89.4402944 44.9733621,89.2026139 C45.2608939,89.0017153 45.5289692,88.813044 45.7789857,88.6355494 C45.3036854,88.2607282 44.7547078,87.8362514 44.1163462,87.349129 Z M21,14 C23.3473637,31.2071767 32.8088284,52.5004696 43.1473494,61.7926274 C46.0047519,64.3608318 48.7872974,66.6873319 51.7420033,69.0160757 C52.8920718,69.9224992 54.0309284,70.8006898 55.3728899,71.8204785 C55.9091075,72.2279631 58.052558,73.8483026 58.5753252,74.2462301 C61.1356071,76.1951024 62.6177888,77.4002956 63.9213766,78.6655553 C66.0232935,80.7056715 67.4415199,82.7355073 68.1051309,85.2851454 C68.3358328,86.1715179 68.454524,87.0802512 68.454524,88 C68.454524,91.4472894 66.891221,94.0412567 64.36955,96.4450979 C63.0277514,97.7241984 61.5272776,98.8609716 58.9161919,100.680826 C50.9251626,106.25035 49.5670432,107.25601 45.9622691,110.613741 C44.8370961,111.661803 43.7648723,112.736891 42.7417217,113.848407 C32.0593966,125.453324 23.4079485,143.59113 21.0519758,162 L133,162 C132.188098,152.253001 129.802208,143.522964 126.039749,135.553575 C122.29073,127.612654 117.413787,120.801446 111.013515,113.848407 C109.990364,112.736891 108.91814,111.661803 107.792967,110.613741 C104.188193,107.25601 102.830074,106.25035 94.8390447,100.680826 C92.2279589,98.8609716 90.7274851,97.7241984 89.3856865,96.4450979 C86.8640155,94.0412567 85.3007125,91.4472894 85.3007125,88 C85.3007125,87.0802512 85.4194037,86.1715179 85.6501056,85.2851454 C86.3137166,82.7355073 87.731943,80.7056715 89.8338599,78.6655553 C91.1374478,77.4002956 92.6196294,76.1951024 95.1799113,74.2462301 C95.7026785,73.8483026 97.846129,72.2279631 98.3823467,71.8204785 C99.7243082,70.8006898 100.863165,69.9224992 102.013233,69.0160757 C104.967939,66.6873319 107.750485,64.3608318 110.607887,61.7926274 C120.946408,52.5004696 130.407873,31.2071767 132.755237,14 L21,14 Z" id="Path" fill="#FCFFF7"></path>
            <path d="M48.4668037,118 L105.598341,118 C106.058328,118.4764 106.533063,118.984441 107.06444,119.561926 C107.986986,120.564524 108.858859,121.584483 109.683573,122.629805 C117.700278,132.79096 123.171241,142.967632 126,155 L29,155 C32.3278929,142.469914 37.935113,130.800677 44.381572,122.629805 C45.2062855,121.584483 46.0781584,120.564524 47.0007051,119.561926 C47.5320813,118.984441 48.0068172,118.4764 48.4668037,118 Z" id="Combined-Shape" fill="#F8E71C"></path>
            <path d="M52,61.6298828 C55.6972656,64.3544922 59.2890625,67.0276693 62.7753906,69.6494141 C68.0048828,73.5820312 74.6927844,77.4367911 74.6927844,88.3100586 C74.6927844,95.5589036 74.6927844,105.788884 74.6927844,119 L79.9351207,119 C79.9351207,105.025716 79.9351207,94.7957357 79.9351207,88.3100586 C79.9351207,78.581543 87.0341797,73.2050781 92.3193359,69.6494141 C95.8427734,67.2789714 99.6760806,64.6057943 103.819257,61.6298828 L52,61.6298828 Z" id="Path-3" fill="#F8E71C"></path>
        </g>
        <rect id="Rectangle" fill="#FCFFF7" fill-rule="nonzero" x="28" y="363" width="207" height="45" rx="22.5"></rect>
        <path d="M87.1807426,159.183218 L80.8192574,152.816782 C87.4844051,146.156817 94.8692686,146.156817 101.069992,150.242314 C101.940557,150.815907 102.716191,151.428626 103.396289,152.048031 C103.828341,152.441525 104.152495,152.772952 104.364642,153.011826 L97.6353582,158.988174 C97.4333405,158.760705 96.891116,158.26687 96.1183065,157.757686 C93.2125878,155.843183 90.5233772,155.843183 87.1807426,159.183218 Z" id="Path-2" fill="#F8E71C" fill-rule="nonzero"></path>
        <path d="M165.180743,159.183218 L158.819257,152.816782 C165.484405,146.156817 172.869269,146.156817 179.069992,150.242314 C179.940557,150.815907 180.716191,151.428626 181.396289,152.048031 C181.828341,152.441525 182.152495,152.772952 182.364642,153.011826 L175.635358,158.988174 C175.43334,158.760705 174.891116,158.26687 174.118307,157.757686 C171.212588,155.843183 168.523377,155.843183 165.180743,159.183218 Z" id="Path-2" fill="#F8E71C" fill-rule="nonzero"></path>
        <g id="Group-3" transform="translate(186.500000, 47.500000) rotate(90.000000) translate(-186.500000, -47.500000) translate(139.000000, 22.000000)" fill="#F8E71C">
            <path d="M92.9,18.8 C80.8,6.7 64.7,4.08562073e-14 47.5,4.08562073e-14 C47.5,4.08562073e-14 47.5,4.08562073e-14 47.5,4.08562073e-14 C30.3,4.08562073e-14 14.2,6.7 2.1,18.8 C-0.7,21.6 -0.7,26 2.1,28.8 C3.5,30.2 5.3,30.9 7.1,30.9 C8.9,30.9 10.7,30.2 12.1,28.8 C21.5,19.3 34.1,14.1 47.5,14.1 C47.5,14.1 47.5,14.1 47.5,14.1 C60.9,14.1 73.5,19.3 82.9,28.8 C85.7,31.6 90.1,31.6 92.9,28.8 C95.7,26 95.7,21.5 92.9,18.8 Z" id="Path"></path>
            <path d="M21.1,38.037532 C18.3,40.837532 18.3,45.237532 21.1,48.037532 C22.5,49.437532 24.3,50.137532 26.1,50.137532 C27.9,50.137532 29.7,49.437532 31.1,48.037532 C40.3,38.837532 55.2,38.837532 64.3,47.937532 C67,50.737532 71.5,50.737532 74.3,47.937532 C77.1,45.137532 77.1,40.737532 74.3,37.937532 C59.6,23.337532 35.8,23.337532 21.1,38.037532 Z" id="Path"></path>
        </g>
        <g id="Group-3" transform="translate(76.500000, 47.500000) scale(-1, 1) rotate(90.000000) translate(-76.500000, -47.500000) translate(29.000000, 22.000000)" fill="#F8E71C">
            <path d="M92.9,18.8 C80.8,6.7 64.7,4.08562073e-14 47.5,4.08562073e-14 C47.5,4.08562073e-14 47.5,4.08562073e-14 47.5,4.08562073e-14 C30.3,4.08562073e-14 14.2,6.7 2.1,18.8 C-0.7,21.6 -0.7,26 2.1,28.8 C3.5,30.2 5.3,30.9 7.1,30.9 C8.9,30.9 10.7,30.2 12.1,28.8 C21.5,19.3 34.1,14.1 47.5,14.1 C47.5,14.1 47.5,14.1 47.5,14.1 C60.9,14.1 73.5,19.3 82.9,28.8 C85.7,31.6 90.1,31.6 92.9,28.8 C95.7,26 95.7,21.5 92.9,18.8 Z" id="Path"></path>
            <path d="M21.1,40.1293714 C18.3,42.4453094 18.3,46.0846405 21.1,48.4005785 C22.5,49.5585475 24.3,50.137532 26.1,50.137532 C27.9,50.137532 29.7,49.5585475 31.1,48.4005785 C40.3,40.7910679 55.2,40.7910679 64.3,48.3178664 C67,50.6338044 71.5,50.6338044 74.3,48.3178664 C77.1,46.0019284 77.1,42.3625973 74.3,40.0466593 C59.6,27.9706968 35.8,27.9706968 21.1,40.1293714 Z" id="Path"></path>
        </g>
    </g>
</svg>